# xmcd CD database file
#
# Track frame offsets:
#	150
#	10681
#	25997
#	31621
#	42929
#	54536
#	64620
#	74142
#	85777
#	93627
#	100968
#	107843
#	117511
#	124968
#	134787
#	148054
#	157159
#	171971
#	179557
#	185426
#	195345
#	207004
#	215031
#	223671
#	231564
#	240867
#	249497
#	259267
#	269888
#	276263
#	286684
#	293034
#	296833
#	304825
#	309221
#
# Disc length: 4308 seconds
#
# Revision: 0
# Processed by: cddbd v1.5.1PL0 Copyright (c) Steve Scherf et al.
# Submitted via: CDex 1.51
#
DISCID=2a10d223
DTITLE=DJ WildChild - Socamaster '04
DYEAR=2004
DGENRE=Salsa
TTITLE0=Intro
TTITLE1=Stage
TTITLE2=Rush
TTITLE3=Get On Bad
TTITLE4=The Band Coming (Road March)
TTITLE5=Carzyness (Head Gone)
TTITLE6=Bumper Catch Ah Fire
TTITLE7=Jumping Up
TTITLE8=Scooter
TTITLE9=In De Air
TTITLE10=Bonnie and Clyde
TTITLE11=Freedom
TTITLE12=The Bumper
TTITLE13=Carnival
TTITLE14=Indian Man
TTITLE15=Chutney
TTITLE16=Come Beta
TTITLE17=Wine
TTITLE18=DJ WildChild Takin' Ah Break
TTITLE19=Strings
TTITLE20=Old Man "Ketch" Yourself
TTITLE21=Formula
TTITLE22=Sugar Island
TTITLE23=Under De Bridge [2003]
TTITLE24=Wreck Ah Bumper
TTITLE25=Bachelor
TTITLE26=Soca Train [2004]
TTITLE27=Hornerman Crying
TTITLE28=Groovin'
TTITLE29=Bubble Nut
TTITLE30=Bounce It
TTITLE31=Doh Break Yuh Neck
TTITLE32=Wine And Bend Over [2003]
TTITLE33=Front [2003]
TTITLE34=WildChild's Bonus Track
EXTD=YEAR: 2004
EXTT0=
EXTT1=
EXTT2=
EXTT3=
EXTT4=
EXTT5=
EXTT6=
EXTT7=
EXTT8=
EXTT9=
EXTT10=
EXTT11=
EXTT12=
EXTT13=
EXTT14=
EXTT15=
EXTT16=
EXTT17=
EXTT18=
EXTT19=
EXTT20=
EXTT21=
EXTT22=
EXTT23=
EXTT24=
EXTT25=
EXTT26=
EXTT27=
EXTT28=
EXTT29=
EXTT30=
EXTT31=
EXTT32=
EXTT33=
EXTT34=
PLAYORDER=
